<svg xmlns="http://www.w3.org/2000/svg" xmlns:xlink="http://www.w3.org/1999/xlink" width="280" zoomAndPan="magnify" viewBox="0 0 210 48" height="64" preserveAspectRatio="xMidYMid meet" version="1.0"><defs><clipPath id="ea43e6ee2f"><path d="M 2.144531 7.613281 L 207.855469 7.613281 L 207.855469 39.207031 L 2.144531 39.207031 Z M 2.144531 7.613281 " clip-rule="nonzero"/></clipPath></defs><g clip-path="url(#ea43e6ee2f)"><path fill="#ffffff" d="M 207.234375 32 C 207.109375 31.382812 206.609375 31.007812 206.046875 31.007812 C 204.300781 31.070312 202.550781 30.761719 200.804688 31.132812 C 199.304688 31.441406 197.746094 31.691406 196.25 31.9375 C 195.6875 32 195.125 32.1875 194.5625 31.753906 C 194.5625 30.824219 194.5625 29.769531 194.5625 28.777344 C 194.625 27.78125 194.3125 26.730469 194.9375 25.734375 C 196.0625 25.675781 197.121094 25.675781 198.183594 25.550781 C 198.746094 25.488281 199.304688 25.425781 199.929688 25.425781 C 200.429688 25.425781 200.992188 25.488281 201.492188 25.550781 C 201.929688 25.613281 202.363281 25.675781 202.800781 25.675781 C 203.425781 25.675781 203.925781 25.300781 203.925781 24.621094 C 203.925781 23.378906 203.925781 22.136719 203.863281 20.960938 C 203.800781 20.527344 203.425781 20.152344 202.988281 20.152344 C 202.613281 20.089844 202.238281 20.089844 201.867188 20.152344 C 200.367188 20.339844 198.871094 20.464844 197.433594 20.710938 C 196.871094 20.835938 196.375 20.898438 195.8125 20.898438 C 195.5 20.898438 195.125 20.835938 194.8125 20.773438 C 194.5 19.78125 194.5625 18.851562 194.75 17.734375 C 196.375 17.609375 197.996094 17.546875 199.617188 17.609375 C 201.554688 17.671875 203.425781 17.609375 205.359375 17.546875 C 206.296875 17.484375 206.796875 16.988281 206.921875 16.058594 C 206.984375 15.066406 207.046875 14.074219 206.984375 13.082031 C 206.984375 11.839844 206.546875 11.40625 205.296875 11.28125 C 203.863281 11.160156 202.363281 11.035156 200.804688 10.972656 C 199.183594 10.847656 197.496094 10.972656 195.8125 10.910156 C 195.25 10.910156 194.625 10.910156 194.1875 10.726562 C 193.75 10.539062 193.316406 10.476562 192.816406 10.476562 C 191.878906 10.476562 191.066406 10.726562 190.132812 11.035156 C 188.632812 11.53125 187.886719 12.585938 187.949219 14.074219 C 188.070312 16.679688 187.699219 19.285156 188.257812 21.890625 C 188.570312 23.253906 188.507812 24.679688 188.320312 26.171875 C 188.195312 27.347656 188.132812 28.652344 188.132812 29.832031 C 188.070312 31.628906 188.070312 33.429688 188.132812 35.226562 C 188.132812 35.414062 188.070312 35.722656 188.132812 35.972656 C 188.132812 36.902344 188.570312 37.398438 189.507812 37.398438 C 190.632812 37.398438 191.753906 37.523438 192.878906 37.273438 C 194.9375 36.902344 197.058594 36.839844 199.183594 36.777344 C 201.179688 36.777344 203.113281 36.714844 205.171875 36.652344 C 205.734375 36.652344 206.296875 36.652344 206.796875 36.53125 C 207.484375 36.34375 207.917969 35.785156 207.855469 35.164062 C 207.609375 33.925781 207.421875 32.992188 207.234375 32 Z M 37.53125 11.40625 C 37.53125 9.917969 38.78125 8.679688 40.277344 8.679688 C 41.773438 8.679688 43.023438 9.855469 43.023438 11.40625 C 43.023438 12.957031 41.773438 14.136719 40.277344 14.136719 C 38.78125 14.136719 37.53125 12.894531 37.53125 11.40625 Z M 32.976562 7.996094 C 31.664062 8.242188 30.355469 8.554688 29.042969 8.925781 C 28.355469 9.113281 28.042969 9.671875 28.042969 10.414062 C 28.042969 10.726562 28.105469 10.972656 28.105469 11.222656 C 28.542969 13.390625 28.355469 15.625 28.167969 17.796875 C 28.105469 18.230469 27.855469 18.664062 27.730469 19.097656 C 23.675781 18.976562 19.742188 18.664062 15.8125 18.601562 C 13.9375 18.601562 12.066406 18.601562 10.195312 18.789062 C 10.132812 18.789062 10.070312 18.789062 10.007812 18.789062 C 9.570312 18.726562 9.195312 18.664062 8.757812 18.601562 C 8.757812 16.804688 8.757812 15.128906 8.695312 13.453125 C 8.632812 12.335938 8.570312 11.222656 8.445312 10.042969 C 8.382812 9.359375 8.007812 9.050781 7.324219 9.050781 C 6.324219 8.988281 5.324219 9.050781 4.328125 9.050781 C 3.578125 9.113281 3.328125 9.296875 3.140625 9.980469 C 3.015625 10.476562 2.890625 10.972656 2.828125 11.46875 C 2.578125 14.445312 2.269531 17.363281 2.144531 20.339844 C 2.082031 24.558594 2.207031 28.777344 2.207031 33.054688 C 2.207031 33.675781 2.207031 34.296875 2.269531 34.917969 C 2.390625 35.847656 2.890625 36.34375 3.828125 36.28125 C 4.828125 36.28125 5.824219 36.21875 6.824219 36.09375 C 8.445312 35.972656 9.195312 35.101562 9.132812 33.429688 C 9.132812 33.117188 9.070312 32.871094 9.070312 32.621094 L 8.945312 31.007812 C 8.882812 30.761719 8.882812 30.449219 8.882812 30.203125 C 8.757812 28.527344 8.632812 26.851562 8.945312 25.117188 C 11.191406 24.992188 13.378906 24.804688 15.5625 24.742188 C 16.25 24.679688 16.996094 24.742188 17.683594 24.867188 C 19.429688 25.179688 21.117188 25.179688 22.800781 25.054688 C 24.425781 24.929688 26.046875 25.054688 27.792969 25.425781 C 27.855469 25.859375 27.855469 26.109375 27.855469 26.417969 C 27.855469 28.15625 27.792969 29.953125 27.855469 31.691406 C 27.855469 32.1875 27.855469 32.683594 27.917969 33.179688 C 28.042969 33.925781 28.667969 34.421875 29.417969 34.359375 C 30.292969 34.296875 31.101562 34.234375 31.976562 34.171875 C 32.851562 34.046875 33.285156 33.675781 33.347656 32.808594 L 33.597656 31.007812 C 33.660156 30.449219 33.722656 29.832031 33.722656 29.273438 C 34.097656 23.132812 34.597656 16.988281 34.535156 10.910156 C 34.535156 10.351562 34.535156 9.792969 34.472656 9.175781 C 34.347656 8.367188 33.722656 7.808594 32.976562 7.996094 Z M 42.960938 30.203125 C 42.960938 28.03125 43.023438 27.660156 43.023438 25.054688 C 42.835938 22.078125 43.148438 24.496094 42.773438 21.082031 C 42.648438 20.03125 42.585938 18.976562 42.460938 17.859375 C 42.335938 16.929688 41.898438 16.554688 40.964844 16.554688 C 40.152344 16.554688 39.339844 16.554688 38.59375 16.929688 C 38.03125 17.175781 37.59375 17.609375 37.53125 18.292969 C 37.34375 19.84375 37.15625 21.332031 37.46875 22.945312 C 37.78125 24.496094 37.90625 26.109375 37.90625 27.722656 C 37.84375 32 37.84375 28.28125 37.71875 32.558594 C 37.71875 33.117188 37.71875 33.738281 37.78125 34.296875 C 37.90625 35.476562 38.40625 35.972656 39.589844 35.785156 C 40.527344 35.660156 41.402344 35.414062 42.273438 35.226562 C 43.210938 34.980469 43.335938 34.605469 43.210938 33.613281 C 43.085938 32.433594 42.960938 31.320312 42.960938 30.203125 Z M 49.828125 31.566406 C 49.390625 31.382812 48.953125 31.382812 48.578125 31.257812 C 48.265625 31.320312 48.015625 31.320312 47.765625 31.382812 C 46.457031 31.753906 45.894531 32.433594 45.832031 33.738281 C 45.769531 34.917969 46.519531 35.785156 47.703125 35.785156 C 47.953125 35.785156 48.078125 35.847656 48.203125 36.03125 C 48.703125 36.839844 48.578125 37.273438 47.890625 37.582031 C 47.765625 37.644531 47.578125 37.769531 47.515625 37.894531 C 47.207031 38.203125 47.332031 38.578125 47.703125 38.699219 C 47.828125 38.761719 48.015625 38.761719 48.140625 38.761719 C 49.578125 38.824219 50.699219 38.082031 51.011719 36.714844 C 51.261719 35.722656 51.386719 34.730469 51.386719 33.738281 C 51.386719 32.433594 51.011719 31.9375 49.828125 31.566406 Z M 124.847656 23.253906 C 124.972656 21.890625 124.847656 20.527344 124.785156 19.222656 C 124.660156 16.617188 124.410156 13.949219 124.222656 11.40625 C 124.160156 10.785156 124.097656 10.230469 123.910156 9.671875 C 123.660156 9.050781 123.101562 8.738281 122.476562 8.800781 C 120.726562 8.925781 119.042969 9.113281 117.296875 9.234375 C 116.359375 9.296875 115.609375 9.671875 114.859375 10.230469 C 113.925781 10.910156 113.050781 11.59375 112.050781 12.214844 C 107.996094 14.757812 104 17.484375 100.382812 20.648438 C 99.820312 21.144531 99.195312 21.640625 98.570312 22.078125 C 97.949219 22.511719 97.261719 22.820312 96.449219 22.757812 C 94.828125 22.574219 93.140625 22.511719 91.707031 21.582031 C 90.769531 20.960938 89.644531 20.648438 88.648438 20.089844 C 87.148438 19.285156 85.589844 18.417969 84.152344 17.484375 C 81.46875 15.8125 78.847656 13.949219 76.164062 12.335938 C 74.792969 11.53125 73.167969 10.910156 71.671875 10.230469 C 71.296875 10.042969 70.796875 9.917969 70.421875 9.917969 C 68.800781 10.042969 67.113281 10.167969 65.492188 10.289062 C 64.929688 10.351562 64.679688 10.664062 64.554688 11.160156 C 64.429688 11.71875 64.367188 12.214844 64.304688 12.710938 C 64.121094 14.757812 63.933594 16.742188 63.808594 18.789062 C 63.683594 20.773438 63.496094 22.695312 63.433594 24.621094 C 63.433594 27.597656 63.433594 30.574219 63.496094 33.613281 C 63.558594 34.296875 63.621094 34.980469 63.746094 35.597656 C 63.933594 36.28125 64.367188 36.714844 64.992188 36.777344 C 65.867188 36.839844 66.804688 36.902344 67.675781 36.777344 C 68.363281 36.652344 68.863281 36.15625 69.113281 35.414062 C 69.238281 34.855469 69.425781 34.296875 69.488281 33.675781 C 69.738281 31.566406 69.921875 29.519531 70.109375 27.410156 C 70.234375 25.984375 70.234375 24.558594 70.296875 23.132812 C 70.359375 21.640625 70.296875 20.152344 70.359375 18.230469 C 71.046875 18.417969 71.421875 18.417969 71.734375 18.601562 C 73.605469 19.78125 75.476562 20.835938 77.289062 22.078125 C 81.53125 25.054688 85.839844 27.96875 90.457031 30.328125 C 91.582031 30.882812 92.765625 31.441406 94.015625 31.816406 C 95.824219 32.496094 97.574219 32 99.320312 31.566406 C 99.632812 31.503906 99.882812 31.257812 100.070312 31.070312 C 101.816406 29.394531 103.566406 27.722656 105.375 26.109375 C 107.558594 24.125 109.742188 22.199219 111.929688 20.277344 C 113.175781 19.160156 114.488281 18.230469 115.859375 17.175781 C 116.296875 16.804688 116.671875 16.058594 117.296875 16.308594 C 118.167969 16.554688 117.917969 17.425781 117.980469 18.042969 C 118.105469 20.648438 118.042969 23.316406 118.230469 25.921875 C 118.480469 28.714844 118.792969 31.441406 119.167969 34.234375 C 119.230469 35.101562 119.730469 35.597656 120.417969 35.535156 C 121.601562 35.414062 122.789062 35.226562 123.972656 34.980469 C 124.660156 34.792969 125.097656 34.234375 125.035156 33.429688 C 125.035156 32.375 125.035156 31.320312 124.972656 30.265625 C 124.597656 27.84375 124.660156 25.550781 124.847656 23.253906 Z M 143.570312 11.902344 C 141.324219 10.910156 138.953125 10.539062 136.519531 10.972656 C 135.707031 11.097656 134.894531 11.40625 134.148438 11.902344 C 130.339844 14.632812 130.027344 14.570312 128.15625 19.160156 C 127.96875 19.65625 127.71875 20.152344 127.59375 20.648438 C 126.84375 23.007812 126.40625 25.363281 126.96875 27.90625 C 127.90625 32.25 130.339844 35.164062 134.582031 36.40625 C 136.457031 36.964844 138.515625 37.027344 140.261719 35.785156 C 142.074219 34.480469 143.820312 32.933594 144.820312 30.824219 C 146.628906 27.164062 147.378906 23.253906 147.628906 19.160156 C 147.628906 18.789062 147.691406 18.417969 147.628906 18.042969 C 147.566406 15.5 145.941406 13.019531 143.570312 11.902344 Z M 141.386719 23.253906 C 140.636719 25.300781 139.890625 27.285156 139.078125 29.273438 C 138.203125 31.320312 136.644531 31.9375 134.023438 30.882812 C 133.648438 30.699219 133.398438 30.328125 133.148438 29.953125 C 132.648438 29.085938 132.585938 28.09375 132.585938 27.101562 C 132.648438 26.542969 132.648438 25.984375 132.710938 25.363281 C 132.710938 24.929688 132.710938 24.433594 132.710938 24 C 132.648438 22.015625 133.398438 20.339844 134.273438 18.664062 C 134.582031 18.105469 135.019531 17.609375 135.457031 17.175781 C 136.832031 15.875 138.453125 15.75 140.078125 16.617188 C 141.136719 17.238281 141.761719 18.167969 141.886719 19.472656 C 141.949219 20.773438 141.824219 22.078125 141.386719 23.253906 Z M 164.980469 12.089844 C 162.792969 11.097656 160.359375 10.726562 157.925781 11.160156 C 157.113281 11.28125 156.242188 11.59375 155.554688 12.089844 C 151.746094 14.820312 151.433594 14.757812 149.5625 19.347656 C 149.375 19.84375 149.125 20.339844 149 20.835938 C 148.253906 23.191406 147.816406 25.550781 148.378906 28.09375 C 149.3125 32.433594 151.746094 35.351562 155.992188 36.589844 C 157.863281 37.148438 159.921875 37.210938 161.671875 35.972656 C 163.480469 34.667969 165.230469 33.117188 166.226562 31.007812 C 168.039062 27.347656 168.785156 23.441406 169.035156 19.347656 C 169.035156 18.976562 169.097656 18.601562 169.035156 18.230469 C 168.972656 15.6875 167.351562 13.207031 164.980469 12.089844 Z M 162.792969 23.441406 C 162.046875 25.488281 161.296875 27.472656 160.484375 29.457031 C 159.613281 31.503906 158.050781 32.125 155.429688 31.070312 C 155.054688 30.882812 154.804688 30.511719 154.554688 30.140625 C 154.058594 29.273438 153.996094 28.28125 153.996094 27.285156 C 154.058594 26.730469 154.058594 26.171875 154.121094 25.550781 C 154.121094 25.117188 154.121094 24.621094 154.121094 24.183594 C 154.058594 22.199219 154.804688 20.527344 155.679688 18.851562 C 155.992188 18.292969 156.429688 17.796875 156.867188 17.363281 C 158.238281 16.058594 159.859375 15.933594 161.484375 16.804688 C 162.546875 17.425781 163.230469 18.355469 163.292969 19.65625 C 163.355469 20.960938 163.230469 22.261719 162.792969 23.441406 Z M 184.515625 23.007812 C 183.453125 20.648438 181.644531 18.976562 179.273438 18.042969 C 178.460938 17.734375 177.648438 17.363281 176.960938 16.617188 C 176.960938 15.6875 176.960938 14.757812 176.960938 13.765625 C 177.023438 12.957031 177.398438 12.335938 178.023438 11.839844 C 178.523438 11.46875 179.023438 11.53125 179.644531 11.78125 C 179.832031 12.027344 179.957031 12.335938 180.144531 12.710938 C 180.644531 13.765625 181.394531 13.886719 182.390625 13.332031 C 182.828125 13.082031 183.203125 12.832031 183.578125 12.585938 C 183.953125 12.398438 184.140625 12.027344 184.140625 11.59375 C 184.203125 10.105469 183.390625 9.113281 182.207031 8.492188 C 180.894531 7.683594 179.460938 7.625 177.960938 7.625 C 175.277344 8.367188 173.28125 9.792969 172.40625 12.523438 C 172.03125 13.703125 172.03125 14.882812 172.03125 16.058594 C 171.90625 18.230469 172.84375 19.78125 174.652344 20.898438 C 176.027344 21.828125 177.335938 22.695312 178.710938 23.628906 C 180.082031 24.496094 180.769531 25.734375 181.082031 27.285156 C 181.144531 27.78125 181.144531 28.21875 181.207031 28.777344 C 181.332031 29.707031 181.082031 30.511719 180.457031 31.132812 C 180.144531 31.503906 179.832031 31.878906 179.523438 32.25 C 178.648438 33.304688 177.398438 33.738281 176.089844 33.925781 C 175.339844 33.984375 174.902344 33.738281 174.714844 32.992188 C 174.589844 32.558594 174.652344 32.0625 174.527344 31.503906 C 174.402344 30.636719 174.214844 29.769531 173.964844 28.898438 C 173.84375 28.464844 173.59375 28.09375 173.09375 28.09375 C 172.15625 28.15625 171.21875 28.15625 170.285156 28.28125 C 169.847656 28.339844 169.597656 28.777344 169.535156 29.273438 C 169.535156 29.394531 169.535156 29.582031 169.597656 29.707031 C 169.847656 31.441406 170.097656 33.179688 170.472656 34.855469 C 171.15625 37.832031 174.402344 39.753906 177.335938 39.074219 C 178.710938 38.761719 180.082031 38.265625 181.332031 37.707031 C 182.269531 37.335938 183.078125 36.589844 183.640625 35.785156 C 184.140625 35.039062 184.578125 34.296875 185.078125 33.613281 C 186.511719 31.628906 186.824219 29.457031 186.074219 27.164062 C 185.636719 25.675781 185.078125 24.308594 184.515625 23.007812 Z M 184.515625 23.007812 " fill-opacity="1" fill-rule="nonzero"/></g></svg>